<svg width="20" height="20" viewBox="0 0 20 20" fill="none" xmlns="http://www.w3.org/2000/svg">
<path d="M4.37496 3.33325H15.625C16.3167 3.33321 16.9823 3.59788 17.4852 4.07298C17.988 4.54808 18.29 5.19758 18.3291 5.88825L18.3333 6.04158V13.9583C18.3333 14.65 18.0687 15.3156 17.5936 15.8184C17.1185 16.3213 16.469 16.6233 15.7783 16.6624L15.625 16.6666H4.37496C3.68318 16.6666 3.0176 16.402 2.51477 15.9269C2.01193 15.4518 1.70996 14.8023 1.67079 14.1116L1.66663 13.9583V6.04158C1.66658 5.3498 1.93125 4.68423 2.40635 4.18139C2.88145 3.67856 3.53095 3.37658 4.22163 3.33742L4.37496 3.33325H15.625H4.37496ZM17.0833 7.81075L10.2916 11.3858C10.2149 11.4263 10.1307 11.4504 10.0441 11.4565C9.95763 11.4627 9.87079 11.4508 9.78913 11.4216L9.70913 11.3866L2.91663 7.81158V13.9583C2.91664 14.3242 3.05427 14.6768 3.30219 14.9461C3.55012 15.2153 3.89021 15.3815 4.25496 15.4116L4.37496 15.4166H15.625C15.9911 15.4166 16.3438 15.2788 16.6131 15.0307C16.8823 14.7826 17.0484 14.4423 17.0783 14.0774L17.0833 13.9583V7.81075ZM15.625 4.58325H4.37496C4.00897 4.58327 3.65636 4.72089 3.38713 4.96882C3.11791 5.21674 2.95174 5.55683 2.92163 5.92159L2.91663 6.04158V6.39908L9.99996 10.1266L17.0833 6.39825V6.04158C17.0833 5.67546 16.9455 5.32274 16.6974 5.0535C16.4493 4.78425 16.109 4.61817 15.7441 4.58825L15.625 4.58325Z" fill="#3F4E65"/>
</svg>
